<svg width="12" height="12" viewBox="0 0 12 12" fill="none" xmlns="http://www.w3.org/2000/svg">
<path d="M6 0C2.68548 0 0 2.68548 0 6C0 9.31452 2.68548 12 6 12C9.31452 12 12 9.31452 12 6C12 2.68548 9.31452 0 6 0ZM6 10.8387C3.33145 10.8387 1.16129 8.66855 1.16129 6C1.16129 3.33145 3.33145 1.16129 6 1.16129C8.66855 1.16129 10.8387 3.33145 10.8387 6C10.8387 8.66855 8.66855 10.8387 6 10.8387ZM4.06452 5.6129C4.49274 5.6129 4.83871 5.26694 4.83871 4.83871C4.83871 4.41048 4.49274 4.06452 4.06452 4.06452C3.63629 4.06452 3.29032 4.41048 3.29032 4.83871C3.29032 5.26694 3.63629 5.6129 4.06452 5.6129ZM7.93548 5.6129C8.36371 5.6129 8.70968 5.26694 8.70968 4.83871C8.70968 4.41048 8.36371 4.06452 7.93548 4.06452C7.50726 4.06452 7.16129 4.41048 7.16129 4.83871C7.16129 5.26694 7.50726 5.6129 7.93548 5.6129ZM8.03226 7.36935C7.52903 7.97419 6.78629 8.32258 6 8.32258C5.21371 8.32258 4.47097 7.97661 3.96774 7.36935C3.7621 7.12258 3.39435 7.09113 3.15 7.29435C2.90323 7.5 2.87177 7.86532 3.075 8.1121C3.80081 8.98306 4.86774 9.48145 6 9.48145C7.13226 9.48145 8.19919 8.98306 8.925 8.1121C9.13064 7.86532 9.09677 7.5 8.85 7.29435C8.60564 7.09113 8.2379 7.12258 8.03226 7.36935Z" fill="#787587"/>
</svg>
