<svg width="12" height="10" viewBox="0 0 12 10" fill="none" xmlns="http://www.w3.org/2000/svg">
<path d="M1.125 0.125004C0.492188 0.125004 0 0.640629 0 1.25C0 1.88282 0.492188 2.375 1.125 2.375C1.73438 2.375 2.25 1.88282 2.25 1.25C2.25 0.640629 1.73438 0.125004 1.125 0.125004ZM1.125 3.875C0.492188 3.875 0 4.39063 0 5C0 5.63282 0.492188 6.125 1.125 6.125C1.73438 6.125 2.25 5.63282 2.25 5C2.25 4.39063 1.73438 3.875 1.125 3.875ZM1.125 7.625C0.492188 7.625 0 8.14063 0 8.75C0 9.38282 0.492188 9.875 1.125 9.875C1.73438 9.875 2.25 9.38282 2.25 8.75C2.25 8.14063 1.73438 7.625 1.125 7.625ZM11.625 8H4.125C3.91406 8 3.75 8.1875 3.75 8.375V9.125C3.75 9.33594 3.91406 9.5 4.125 9.5H11.625C11.8125 9.5 12 9.33594 12 9.125V8.375C12 8.1875 11.8125 8 11.625 8ZM11.625 0.500004H4.125C3.91406 0.500004 3.75 0.687504 3.75 0.875004V1.625C3.75 1.83594 3.91406 2 4.125 2H11.625C11.8125 2 12 1.83594 12 1.625V0.875004C12 0.687504 11.8125 0.500004 11.625 0.500004ZM11.625 4.25H4.125C3.91406 4.25 3.75 4.4375 3.75 4.625V5.375C3.75 5.58594 3.91406 5.75 4.125 5.75H11.625C11.8125 5.75 12 5.58594 12 5.375V4.625C12 4.4375 11.8125 4.25 11.625 4.25Z" fill="#787587"/>
</svg>
