<svg width="12" height="12" viewBox="0 0 12 12" fill="none" xmlns="http://www.w3.org/2000/svg">
<path d="M11.718 2.90625C11.8586 2.90625 11.9992 2.78906 11.9992 2.625V1.875C11.9992 1.73438 11.8586 1.59375 11.718 1.59375H3.28047C3.11641 1.59375 2.99922 1.73438 2.99922 1.875V2.625C2.99922 2.78906 3.11641 2.90625 3.28047 2.90625H11.718ZM11.9992 6.375V5.625C11.9992 5.48438 11.8586 5.34375 11.718 5.34375H3.28047C3.11641 5.34375 2.99922 5.48438 2.99922 5.625V6.375C2.99922 6.53906 3.11641 6.65625 3.28047 6.65625H11.718C11.8586 6.65625 11.9992 6.53906 11.9992 6.375ZM11.9992 10.125V9.375C11.9992 9.23438 11.8586 9.09375 11.718 9.09375H3.28047C3.11641 9.09375 2.99922 9.23438 2.99922 9.375V10.125C2.99922 10.2891 3.11641 10.4062 3.28047 10.4062H11.718C11.8586 10.4062 11.9992 10.2891 11.9992 10.125ZM0.0695349 3.49219C0.0695349 3.65625 0.163285 3.75 0.327347 3.75H1.9211C2.08516 3.75 2.17891 3.65625 2.17891 3.49219V3.28125C2.17891 3.11719 2.08516 3 1.9211 3H1.5461V1.03125C1.5461 0.84375 1.45235 0.75 1.26485 0.75H0.983598C0.842973 0.75 0.749222 0.796875 0.655472 0.890625L0.139847 1.35938C0.0226599 1.47656 -0.000777636 1.61719 0.139847 1.75781L0.257035 1.89844C0.374222 2.01562 0.514847 2.01562 0.632035 1.92188C0.655472 1.89844 0.702347 1.82812 0.702347 1.82812C0.702347 1.82812 0.67891 1.94531 0.67891 2.08594V3H0.327347C0.163285 3 0.0695349 3.11719 0.0695349 3.28125V3.49219ZM0.0460974 7.24219C0.0460974 7.40625 0.163285 7.5 0.327347 7.5H1.9211C2.08516 7.5 2.17891 7.40625 2.17891 7.24219V7.03125C2.17891 6.86719 2.08516 6.77344 1.9211 6.77344H1.00704C1.05391 6.51562 2.13204 6.32812 2.13204 5.4375C2.13204 4.75781 1.5461 4.5 1.10079 4.5C0.608597 4.5 0.30391 4.73438 0.139847 4.94531C0.0460974 5.08594 0.0695349 5.20312 0.21016 5.32031L0.421097 5.46094C0.538285 5.57812 0.67891 5.53125 0.796098 5.41406C0.86641 5.34375 0.936723 5.32031 1.00704 5.32031C1.10079 5.32031 1.24141 5.36719 1.24141 5.53125C1.24141 5.83594 0.0460974 6.04688 0.0460974 7.14844V7.24219ZM0.186722 11.0391C0.350785 11.1562 0.632035 11.25 1.03047 11.25C1.82735 11.25 2.15547 10.7344 2.15547 10.2188C2.15547 9.89062 1.94454 9.53906 1.47579 9.42188L1.89766 8.92969C1.99141 8.83594 2.01485 8.74219 2.01485 8.60156V8.53125C2.01485 8.36719 1.9211 8.25 1.75704 8.25H0.374222C0.21016 8.25 0.11641 8.34375 0.11641 8.53125V8.74219C0.11641 8.90625 0.21016 9 0.374222 9H0.67891C0.889848 9 0.983598 8.97656 0.983598 8.97656C0.983598 8.97656 0.842973 9.09375 0.67891 9.30469L0.561722 9.46875C0.467972 9.58594 0.444535 9.70312 0.49141 9.82031L0.514847 9.86719C0.58516 9.98438 0.655472 10.0312 0.796098 10.0312H0.913285C1.14766 10.0312 1.28829 10.1016 1.28829 10.2656C1.28829 10.3594 1.19454 10.4531 0.96016 10.4531C0.842973 10.4531 0.725785 10.4297 0.608597 10.3828C0.467972 10.2891 0.350785 10.2891 0.257035 10.4531L0.11641 10.6641C0.0226599 10.8047 0.0460974 10.9453 0.186722 11.0391Z" fill="#787587"/>
</svg>
