<svg width="13" height="11" viewBox="0 0 13 11" fill="none" xmlns="http://www.w3.org/2000/svg">
<path d="M12.625 5.4375H5.875C5.66406 5.4375 5.5 5.625 5.5 5.8125V6.1875C5.5 6.39844 5.66406 6.5625 5.875 6.5625H12.625C12.8125 6.5625 13 6.39844 13 6.1875V5.8125C13 5.625 12.8125 5.4375 12.625 5.4375ZM12.625 9.1875H5.875C5.66406 9.1875 5.5 9.375 5.5 9.5625V9.9375C5.5 10.1484 5.66406 10.3125 5.875 10.3125H12.625C12.8125 10.3125 13 10.1484 13 9.9375V9.5625C13 9.375 12.8125 9.1875 12.625 9.1875ZM12.625 1.6875H5.875C5.66406 1.6875 5.5 1.875 5.5 2.0625V2.4375C5.5 2.64844 5.66406 2.8125 5.875 2.8125H12.625C12.8125 2.8125 13 2.64844 13 2.4375V2.0625C13 1.875 12.8125 1.6875 12.625 1.6875ZM2.5 8.625C1.89062 8.625 1.375 9.14063 1.375 9.75C1.375 10.3828 1.89062 10.875 2.5 10.875C3.10938 10.875 3.625 10.3828 3.625 9.75C3.625 9.14063 3.10938 8.625 2.5 8.625ZM4.25781 4.59375C4.21094 4.54688 4.11719 4.5 4.07031 4.5C4 4.5 3.90625 4.54688 3.85938 4.59375L2.35938 6.07032L1.84375 5.55469C1.79688 5.50782 1.70312 5.48438 1.63281 5.48438C1.5625 5.48438 1.49219 5.50782 1.44531 5.55469L1.07031 5.92969C1.02344 5.97657 0.976562 6.07032 0.976562 6.11719C0.976562 6.1875 1.02344 6.28125 1.07031 6.32813L2.19531 7.42969C2.24219 7.47657 2.3125 7.5 2.38281 7.5C2.45312 7.5 2.54688 7.47657 2.59375 7.42969L2.96875 7.05469L4.65625 5.39063C4.70312 5.34375 4.72656 5.25 4.72656 5.17969C4.72656 5.13282 4.70312 5.03907 4.65625 4.99219L4.25781 4.59375ZM4.25781 0.843754C4.21094 0.796879 4.11719 0.750004 4.07031 0.750004C4 0.750004 3.90625 0.796879 3.85938 0.843754L2.35938 2.32032L1.84375 1.80469C1.79688 1.75782 1.70312 1.73438 1.63281 1.73438C1.5625 1.73438 1.49219 1.75782 1.44531 1.80469L1.07031 2.17969C1.02344 2.22657 0.976562 2.29688 0.976562 2.36719C0.976562 2.4375 1.02344 2.53125 1.07031 2.57813L2.19531 3.67969C2.24219 3.72657 2.33594 3.75 2.38281 3.75C2.45312 3.75 2.54688 3.72657 2.59375 3.67969L2.96875 3.30469L4.65625 1.61719C4.70312 1.57032 4.75 1.5 4.75 1.42969C4.75 1.35938 4.70312 1.26563 4.65625 1.21875L4.25781 0.843754Z" fill="#787587"/>
</svg>
